<?xml version="1.0" encoding="UTF-8" standalone="no"?>
<!-- Created with Inkscape (http://www.inkscape.org/) -->

<svg
   width="128"
   height="128"
   viewBox="0 0 33.866666 33.866666"
   version="1.1"
   id="svg976"
   inkscape:version="1.1.2 (0a00cf5339, 2022-02-04)"
   sodipodi:docname="logo-topomine-pioche-128.svg"
   inkscape:export-filename="/home/eric/Desktop/ptm4Qgis/ptm4qgis-topomine/topomine/resources/images/logo-topomine-pioche-128-corner2.png"
   inkscape:export-xdpi="96"
   inkscape:export-ydpi="96"
   xmlns:inkscape="http://www.inkscape.org/namespaces/inkscape"
   xmlns:sodipodi="http://sodipodi.sourceforge.net/DTD/sodipodi-0.dtd"
   xmlns="http://www.w3.org/2000/svg"
   xmlns:svg="http://www.w3.org/2000/svg"
   xmlns:rdf="http://www.w3.org/1999/02/22-rdf-syntax-ns#"
   xmlns:cc="http://creativecommons.org/ns#"
   xmlns:dc="http://purl.org/dc/elements/1.1/">
  <defs
     id="defs970" />
  <sodipodi:namedview
     id="base"
     pagecolor="#ffffff"
     bordercolor="#666666"
     borderopacity="1.0"
     inkscape:pageopacity="0"
     inkscape:pageshadow="2"
     inkscape:zoom="2.8"
     inkscape:cx="86.428571"
     inkscape:cy="15.535714"
     inkscape:document-units="px"
     inkscape:current-layer="g862"
     showgrid="false"
     inkscape:window-width="1920"
     inkscape:window-height="1005"
     inkscape:window-x="1920"
     inkscape:window-y="25"
     inkscape:window-maximized="1"
     inkscape:pagecheckerboard="0"
     units="px"
     width="128px" />
  <metadata
     id="metadata973">
    <rdf:RDF>
      <cc:Work
         rdf:about="">
        <dc:format>image/svg+xml</dc:format>
        <dc:type
           rdf:resource="http://purl.org/dc/dcmitype/StillImage" />
      </cc:Work>
    </rdf:RDF>
  </metadata>
  <g
     inkscape:label="Layer 1"
     inkscape:groupmode="layer"
     id="layer1"
     transform="translate(0,-229.185)">
    <g
       id="g862">
      <rect
         style="fill:#00003e;fill-opacity:1;stroke:none;stroke-width:3.23691;stroke-miterlimit:4;stroke-dasharray:none;stroke-opacity:1"
         id="rect257"
         width="33.866665"
         height="33.866665"
         x="1.5126403e-07"
         y="229.185"
         ry="5.2916665"
         rx="5.2916665" />
      <g
         id="g997-7-3"
         transform="matrix(-0.05889133,-0.01577989,-0.01577989,0.05889133,34.164012,235.01445)"
         style="fill:#ff6600;stroke:#ffffff;stroke-opacity:1">
        <g
           id="g940-0-6"
           style="fill:#ff6600;stroke:#ffffff;stroke-opacity:1">
          <g
             id="g938-9-7"
             style="fill:#ff6600;stroke:#ffffff;stroke-opacity:1">
            <path
               id="path936-3-5"
               d="M 471.254,139.204 C 438.358,104.465 376.329,64.205 306.117,60.083 l 4.898,-14.711 c 0.879,-2.603 0.435,-5.461 -1.169,-7.689 -1.596,-2.236 -4.173,-3.55 -6.912,-3.55 h -14.677 l 5.879,-23.526 c 0.64,-2.551 0.068,-5.248 -1.553,-7.322 C 290.962,1.212 288.496,0 285.868,0 h -68.267 c -2.628,0 -5.111,1.212 -6.724,3.285 -1.613,2.073 -2.193,4.77 -1.553,7.322 l 5.879,23.526 h -14.669 c -2.739,0 -5.316,1.314 -6.929,3.55 -1.604,2.227 -2.039,5.086 -1.169,7.689 l 4.702,14.114 c -73.105,0.06 -143.855,28.766 -158.157,65.425 -0.956,2.458 -0.725,5.222 0.631,7.492 l 25.6,42.667 c 1.323,2.202 3.567,3.695 6.118,4.062 0.401,0.043 0.802,0.068 1.203,0.068 2.142,0 4.215,-0.802 5.803,-2.278 24.849,-23.057 51.226,-42.65 118.622,-48.111 l -4.514,13.551 c -0.879,2.603 -0.435,5.461 1.169,7.689 1.604,2.236 4.181,3.55 6.921,3.55 h 17.067 v 314.684 l -8.277,33.109 c -0.64,2.552 -0.068,5.248 1.553,7.322 1.621,2.074 4.096,3.285 6.724,3.285 h 68.267 c 2.628,0 5.111,-1.212 6.724,-3.285 1.613,-2.073 2.193,-4.77 1.553,-7.322 l -8.277,-33.109 V 153.6 h 17.067 c 2.739,0 5.316,-1.314 6.929,-3.55 1.604,-2.227 2.039,-5.086 1.169,-7.689 l -4.719,-14.157 c 45.568,1.493 121.011,10.82 155.563,24.772 3.678,1.493 7.987,0.213 10.24,-3.106 2.26,-3.319 1.911,-7.756 -0.863,-10.666 z M 274.936,17.067 270.678,34.134 h -37.879 l -4.267,-17.067 z m -46.404,477.866 5.871,-23.526 c 0.179,-0.683 0.265,-1.374 0.265,-2.074 V 153.6 h 34.133 v 315.733 c 0,0.7 0.085,1.391 0.256,2.074 l 5.879,23.526 z m 65.869,-384 c -2.739,0 -5.316,1.314 -6.929,3.55 -1.604,2.227 -2.039,5.086 -1.169,7.689 l 4.787,14.362 h -78.72 l 4.787,-14.37 c 0.888,-2.679 0.41,-5.623 -1.297,-7.868 -1.707,-2.245 -4.233,-3.507 -7.236,-3.354 -68.813,3.541 -103.014,19.695 -134.093,46.473 L 56.577,127.48 C 72.79,97.715 143.011,73.89 208.692,76.792 c 2.893,0.128 5.495,-1.135 7.185,-3.379 1.69,-2.244 2.176,-5.171 1.28,-7.842 l -4.779,-14.37 h 78.72 l -4.787,14.37 c -0.879,2.603 -0.435,5.461 1.169,7.689 1.604,2.227 4.181,3.541 6.921,3.541 53.146,0 102.161,23.305 136.789,49.553 -43.972,-9.746 -102.511,-15.421 -136.789,-15.421 z"
               inkscape:connector-curvature="0"
               style="fill:#ff6600;stroke:#ffffff;stroke-opacity:1" />
          </g>
        </g>
        <g
           id="g942-6-3"
           style="fill:#ff6600;stroke:#ffffff;stroke-opacity:1" />
        <g
           id="g944-0-5"
           style="fill:#ff6600;stroke:#ffffff;stroke-opacity:1" />
        <g
           id="g946-6-6"
           style="fill:#ff6600;stroke:#ffffff;stroke-opacity:1" />
        <g
           id="g948-2-2"
           style="fill:#ff6600;stroke:#ffffff;stroke-opacity:1" />
        <g
           id="g950-6-9"
           style="fill:#ff6600;stroke:#ffffff;stroke-opacity:1" />
        <g
           id="g952-1-1"
           style="fill:#ff6600;stroke:#ffffff;stroke-opacity:1" />
        <g
           id="g954-8-2"
           style="fill:#ff6600;stroke:#ffffff;stroke-opacity:1" />
        <g
           id="g956-7-7"
           style="fill:#ff6600;stroke:#ffffff;stroke-opacity:1" />
        <g
           id="g958-9-0"
           style="fill:#ff6600;stroke:#ffffff;stroke-opacity:1" />
        <g
           id="g960-2-9"
           style="fill:#ff6600;stroke:#ffffff;stroke-opacity:1" />
        <g
           id="g962-0-3"
           style="fill:#ff6600;stroke:#ffffff;stroke-opacity:1" />
        <g
           id="g964-2-6"
           style="fill:#ff6600;stroke:#ffffff;stroke-opacity:1" />
        <g
           id="g966-3-0"
           style="fill:#ff6600;stroke:#ffffff;stroke-opacity:1" />
        <g
           id="g968-7-6"
           style="fill:#ff6600;stroke:#ffffff;stroke-opacity:1" />
        <g
           id="g970-5-2"
           style="fill:#ff6600;stroke:#ffffff;stroke-opacity:1" />
      </g>
    </g>
  </g>
</svg>
